<svg width="165" height="71" viewBox="0 0 165 71" fill="none" xmlns="http://www.w3.org/2000/svg">
<path d="M33.403 44V27.555H40.418C43.799 27.555 45.984 29.28 45.984 32.27C45.984 34.57 44.811 35.904 42.925 36.364V36.41C46.72 37.123 45.34 43.563 46.214 43.839V44H43.339C42.58 43.31 44.121 37.652 40.165 37.652H36.14V44H33.403ZM36.14 29.878V35.306H39.843C41.522 35.306 43.27 34.984 43.27 32.592C43.27 30.223 41.522 29.878 39.843 29.878H36.14ZM52.9219 44.345C49.2419 44.345 47.0109 41.792 47.0109 38.135C47.0109 34.478 49.2419 31.925 52.9219 31.925C56.6019 31.925 58.8329 34.478 58.8329 38.135C58.8329 41.792 56.6019 44.345 52.9219 44.345ZM52.9219 42.367C55.2219 42.367 56.4179 40.55 56.4179 38.135C56.4179 35.697 55.2219 33.903 52.9219 33.903C50.6219 33.903 49.4259 35.697 49.4259 38.135C49.4259 40.55 50.6219 42.367 52.9219 42.367ZM68.414 32.247H70.829V43.195C70.829 46.576 68.782 48.071 65.447 48.071C62.066 48.071 60.203 46.3 59.95 44.322H62.388C62.618 45.357 63.446 46.139 65.355 46.139C67.379 46.139 68.414 45.219 68.414 43.103V41.677H68.368C67.747 42.551 66.666 43.425 64.803 43.425C61.859 43.425 59.651 41.378 59.651 37.675C59.651 33.949 61.859 31.925 64.803 31.925C66.666 31.925 67.747 32.799 68.368 33.627H68.414V32.247ZM65.263 41.447C67.218 41.447 68.391 40.159 68.391 37.675C68.391 35.191 67.218 33.903 65.263 33.903C63.147 33.903 62.066 35.49 62.066 37.675C62.066 39.837 63.147 41.447 65.263 41.447ZM80.6177 32.247H83.0327V44H80.6177V42.482H80.5717C79.9507 43.402 78.7317 44.322 76.7077 44.322C74.5227 44.322 72.7977 43.057 72.7977 40.366V32.247H75.2357V39.676C75.2357 41.263 75.9027 42.275 77.5587 42.275C79.4217 42.275 80.6177 41.148 80.6177 39.4V32.247ZM90.301 42.367C92.302 42.367 93.107 41.125 93.314 40.412H95.729C95.131 42.643 93.383 44.345 90.37 44.345C86.713 44.345 84.482 41.815 84.482 38.135C84.482 34.317 86.713 31.925 90.255 31.925C94.05 31.925 95.913 34.57 95.913 38.756H86.897C86.897 40.734 88.162 42.367 90.301 42.367ZM90.255 33.834C88.3 33.834 86.897 35.145 86.897 36.962H93.498C93.498 35.145 92.21 33.834 90.255 33.834ZM102.422 36.893C104.584 37.399 106.93 37.882 106.93 40.688C106.93 42.942 104.998 44.345 102.146 44.345C98.3509 44.345 96.7179 42.574 96.6029 40.09H98.9489C99.0639 41.355 99.6159 42.436 102.1 42.436C103.779 42.436 104.492 41.608 104.492 40.872C104.492 39.4 103.089 39.285 101.364 38.871C99.5009 38.434 96.9709 38.066 96.9709 35.398C96.9709 33.466 98.6729 31.925 101.617 31.925C104.814 31.925 106.332 33.65 106.493 35.697H104.147C103.986 34.777 103.526 33.834 101.64 33.834C100.191 33.834 99.4089 34.386 99.4089 35.214C99.4089 36.41 100.72 36.502 102.422 36.893ZM113.787 44.345C110.107 44.345 107.876 41.792 107.876 38.135C107.876 34.478 110.107 31.925 113.787 31.925C117.467 31.925 119.698 34.478 119.698 38.135C119.698 41.792 117.467 44.345 113.787 44.345ZM113.787 42.367C116.087 42.367 117.283 40.55 117.283 38.135C117.283 35.697 116.087 33.903 113.787 33.903C111.487 33.903 110.291 35.697 110.291 38.135C110.291 40.55 111.487 42.367 113.787 42.367ZM129.233 36.548C129.141 35.352 128.382 33.903 126.312 33.903C123.943 33.903 122.931 35.927 122.931 38.135C122.931 40.343 123.92 42.367 126.312 42.367C128.382 42.367 129.141 40.941 129.233 39.63H131.648C131.464 42.344 129.371 44.345 126.312 44.345C122.793 44.345 120.516 41.815 120.516 38.135C120.516 34.455 122.793 31.925 126.289 31.925C129.348 31.925 131.349 33.88 131.648 36.548H129.233ZM134.37 30.269C133.703 30.269 133.013 29.809 133.013 28.981C133.013 28.153 133.703 27.716 134.37 27.716C135.083 27.716 135.75 28.153 135.75 28.981C135.75 29.809 135.083 30.269 134.37 30.269ZM133.174 32.247H135.589V44H133.174V32.247ZM144.921 35.329C144.921 34.478 144.415 33.834 142.805 33.834C140.873 33.834 140.16 34.432 140.045 35.95H137.699C137.814 33.696 139.263 31.925 142.805 31.925C145.404 31.925 147.336 32.914 147.336 36.042V41.631C147.336 42.459 147.52 42.896 148.463 42.804V43.954C147.911 44.161 147.52 44.207 147.06 44.207C145.772 44.207 145.174 43.747 144.944 42.597H144.898C144.162 43.632 142.828 44.345 141.011 44.345C138.619 44.345 137.147 42.965 137.147 40.987C137.147 38.411 139.056 37.606 142 37.031C143.817 36.686 144.921 36.456 144.921 35.329ZM141.54 42.436C143.541 42.436 144.921 41.447 144.921 39.538V37.767C144.53 38.043 143.587 38.319 142.46 38.549C140.459 38.986 139.585 39.561 139.585 40.757C139.585 41.838 140.229 42.436 141.54 42.436ZM149.692 27.555H152.13V44H149.692V27.555ZM159.328 36.893C161.49 37.399 163.836 37.882 163.836 40.688C163.836 42.942 161.904 44.345 159.052 44.345C155.257 44.345 153.624 42.574 153.509 40.09H155.855C155.97 41.355 156.522 42.436 159.006 42.436C160.685 42.436 161.398 41.608 161.398 40.872C161.398 39.4 159.995 39.285 158.27 38.871C156.407 38.434 153.877 38.066 153.877 35.398C153.877 33.466 155.579 31.925 158.523 31.925C161.72 31.925 163.238 33.65 163.399 35.697H161.053C160.892 34.777 160.432 33.834 158.546 33.834C157.097 33.834 156.315 34.386 156.315 35.214C156.315 36.41 157.626 36.502 159.328 36.893Z" fill="white"/>
<g clip-path="url(#clip0_2112_3)">
<path d="M0 22H12.75C20.6201 22 27 28.3799 27 36.25V46H0V22Z" fill="#0A5E29"/>
<path d="M0 30H4.56C12.535 30 19 36.8053 19 45.2V46H0V30Z" fill="#19F469"/>
</g>
<defs>
<clipPath id="clip0_2112_3">
<rect width="27" height="24" fill="white" transform="translate(0 22)"/>
</clipPath>
</defs>
</svg>
