<svg width="165" height="71" viewBox="0 0 165 71" fill="none" xmlns="http://www.w3.org/2000/svg">
<path d="M33.4031 43.9997V27.5547H40.4181C43.7991 27.5547 45.9841 29.2797 45.9841 32.2697C45.9841 34.5697 44.8111 35.9037 42.9251 36.3637V36.4097C46.7201 37.1227 45.3401 43.5627 46.2141 43.8387V43.9997H43.3391C42.5801 43.3097 44.1211 37.6517 40.1651 37.6517H36.1401V43.9997H33.4031ZM36.1401 29.8777V35.3057H39.8431C41.5221 35.3057 43.2701 34.9837 43.2701 32.5917C43.2701 30.2227 41.5221 29.8777 39.8431 29.8777H36.1401ZM52.922 44.3447C49.242 44.3447 47.011 41.7917 47.011 38.1347C47.011 34.4777 49.242 31.9247 52.922 31.9247C56.602 31.9247 58.833 34.4777 58.833 38.1347C58.833 41.7917 56.602 44.3447 52.922 44.3447ZM52.922 42.3667C55.222 42.3667 56.418 40.5497 56.418 38.1347C56.418 35.6967 55.222 33.9027 52.922 33.9027C50.622 33.9027 49.426 35.6967 49.426 38.1347C49.426 40.5497 50.622 42.3667 52.922 42.3667ZM68.4141 32.2467H70.8291V43.1947C70.8291 46.5757 68.7821 48.0707 65.4471 48.0707C62.0661 48.0707 60.2031 46.2997 59.9501 44.3217H62.3881C62.6181 45.3567 63.4461 46.1387 65.3551 46.1387C67.3791 46.1387 68.4141 45.2187 68.4141 43.1027V41.6767H68.3681C67.7471 42.5507 66.6661 43.4247 64.8031 43.4247C61.8591 43.4247 59.6511 41.3777 59.6511 37.6747C59.6511 33.9487 61.8591 31.9247 64.8031 31.9247C66.6661 31.9247 67.7471 32.7987 68.3681 33.6267H68.4141V32.2467ZM65.2631 41.4467C67.2181 41.4467 68.3911 40.1587 68.3911 37.6747C68.3911 35.1907 67.2181 33.9027 65.2631 33.9027C63.1471 33.9027 62.0661 35.4897 62.0661 37.6747C62.0661 39.8367 63.1471 41.4467 65.2631 41.4467ZM80.6178 32.2467H83.0328V43.9997H80.6178V42.4817H80.5718C79.9508 43.4017 78.7318 44.3217 76.7078 44.3217C74.5228 44.3217 72.7978 43.0567 72.7978 40.3657V32.2467H75.2358V39.6757C75.2358 41.2627 75.9028 42.2747 77.5588 42.2747C79.4218 42.2747 80.6178 41.1477 80.6178 39.3997V32.2467ZM90.3011 42.3667C92.3021 42.3667 93.1071 41.1247 93.3141 40.4117H95.7291C95.1311 42.6427 93.3831 44.3447 90.3701 44.3447C86.7131 44.3447 84.4821 41.8147 84.4821 38.1347C84.4821 34.3167 86.7131 31.9247 90.2551 31.9247C94.0501 31.9247 95.9131 34.5697 95.9131 38.7557H86.8971C86.8971 40.7337 88.1621 42.3667 90.3011 42.3667ZM90.2551 33.8337C88.3001 33.8337 86.8971 35.1447 86.8971 36.9617H93.4981C93.4981 35.1447 92.2101 33.8337 90.2551 33.8337ZM102.422 36.8927C104.584 37.3987 106.93 37.8817 106.93 40.6877C106.93 42.9417 104.998 44.3447 102.146 44.3447C98.351 44.3447 96.718 42.5737 96.603 40.0897H98.949C99.064 41.3547 99.616 42.4357 102.1 42.4357C103.779 42.4357 104.492 41.6077 104.492 40.8717C104.492 39.3997 103.089 39.2847 101.364 38.8707C99.501 38.4337 96.971 38.0657 96.971 35.3977C96.971 33.4657 98.673 31.9247 101.617 31.9247C104.814 31.9247 106.332 33.6497 106.493 35.6967H104.147C103.986 34.7767 103.526 33.8337 101.64 33.8337C100.191 33.8337 99.409 34.3857 99.409 35.2137C99.409 36.4097 100.72 36.5017 102.422 36.8927ZM113.787 44.3447C110.107 44.3447 107.876 41.7917 107.876 38.1347C107.876 34.4777 110.107 31.9247 113.787 31.9247C117.467 31.9247 119.698 34.4777 119.698 38.1347C119.698 41.7917 117.467 44.3447 113.787 44.3447ZM113.787 42.3667C116.087 42.3667 117.283 40.5497 117.283 38.1347C117.283 35.6967 116.087 33.9027 113.787 33.9027C111.487 33.9027 110.291 35.6967 110.291 38.1347C110.291 40.5497 111.487 42.3667 113.787 42.3667ZM129.233 36.5477C129.141 35.3517 128.382 33.9027 126.312 33.9027C123.943 33.9027 122.931 35.9267 122.931 38.1347C122.931 40.3427 123.92 42.3667 126.312 42.3667C128.382 42.3667 129.141 40.9407 129.233 39.6297H131.648C131.464 42.3437 129.371 44.3447 126.312 44.3447C122.793 44.3447 120.516 41.8147 120.516 38.1347C120.516 34.4547 122.793 31.9247 126.289 31.9247C129.348 31.9247 131.349 33.8797 131.648 36.5477H129.233ZM134.37 30.2687C133.703 30.2687 133.013 29.8087 133.013 28.9807C133.013 28.1527 133.703 27.7157 134.37 27.7157C135.083 27.7157 135.75 28.1527 135.75 28.9807C135.75 29.8087 135.083 30.2687 134.37 30.2687ZM133.174 32.2467H135.589V43.9997H133.174V32.2467ZM144.921 35.3287C144.921 34.4777 144.415 33.8337 142.805 33.8337C140.873 33.8337 140.16 34.4317 140.045 35.9497H137.699C137.814 33.6957 139.263 31.9247 142.805 31.9247C145.404 31.9247 147.336 32.9137 147.336 36.0417V41.6307C147.336 42.4587 147.52 42.8957 148.463 42.8037V43.9537C147.911 44.1607 147.52 44.2067 147.06 44.2067C145.772 44.2067 145.174 43.7467 144.944 42.5967H144.898C144.162 43.6317 142.828 44.3447 141.011 44.3447C138.619 44.3447 137.147 42.9647 137.147 40.9867C137.147 38.4107 139.056 37.6057 142 37.0307C143.817 36.6857 144.921 36.4557 144.921 35.3287ZM141.54 42.4357C143.541 42.4357 144.921 41.4467 144.921 39.5377V37.7667C144.53 38.0427 143.587 38.3187 142.46 38.5487C140.459 38.9857 139.585 39.5607 139.585 40.7567C139.585 41.8377 140.229 42.4357 141.54 42.4357ZM149.692 27.5547H152.13V43.9997H149.692V27.5547ZM159.328 36.8927C161.49 37.3987 163.836 37.8817 163.836 40.6877C163.836 42.9417 161.904 44.3447 159.052 44.3447C155.257 44.3447 153.624 42.5737 153.509 40.0897H155.855C155.97 41.3547 156.522 42.4357 159.006 42.4357C160.685 42.4357 161.398 41.6077 161.398 40.8717C161.398 39.3997 159.995 39.2847 158.27 38.8707C156.407 38.4337 153.877 38.0657 153.877 35.3977C153.877 33.4657 155.579 31.9247 158.523 31.9247C161.72 31.9247 163.238 33.6497 163.399 35.6967H161.053C160.892 34.7767 160.432 33.8337 158.546 33.8337C157.097 33.8337 156.315 34.3857 156.315 35.2137C156.315 36.4097 157.626 36.5017 159.328 36.8927Z" fill="black"/>
<mask id="mask0_2110_11" style="mask-type:luminance" maskUnits="userSpaceOnUse" x="0" y="22" width="27" height="24">
<path d="M27 22H0V46H27V22Z" fill="white"/>
</mask>
<g mask="url(#mask0_2110_11)">
<path d="M0 22H12.75C20.6201 22 27 28.3799 27 36.25V46H0V22Z" fill="#0A5E29"/>
<path d="M0 30H4.56C12.535 30 19 36.8053 19 45.2V46H0V30Z" fill="#19F469"/>
</g>
</svg>
